<svg width="219" height="41" viewBox="0 0 219 41" fill="none" xmlns="http://www.w3.org/2000/svg">
<path d="M45.4 32V10.4H48.535V32H45.4ZM72.4495 32L72.4645 21.905C72.4645 20.735 72.1645 19.825 71.5645 19.175C70.9645 18.515 70.1745 18.185 69.1945 18.185C68.5945 18.185 68.0445 18.325 67.5445 18.605C67.0545 18.875 66.6545 19.285 66.3445 19.835C66.0445 20.375 65.8945 21.055 65.8945 21.875L64.3795 21.11C64.3595 19.97 64.5995 18.97 65.0995 18.11C65.6095 17.25 66.2995 16.585 67.1695 16.115C68.0395 15.635 69.0145 15.395 70.0945 15.395C71.8445 15.395 73.1995 15.92 74.1595 16.97C75.1195 18.02 75.5995 19.415 75.5995 21.155L75.5845 32H72.4495ZM53.0245 32V15.8H55.8145V20.48H56.1745V32H53.0245ZM62.7445 32L62.7595 21.965C62.7595 20.785 62.4595 19.86 61.8595 19.19C61.2695 18.52 60.4745 18.185 59.4745 18.185C58.4845 18.185 57.6845 18.525 57.0745 19.205C56.4745 19.885 56.1745 20.775 56.1745 21.875L54.6745 20.915C54.6745 19.855 54.9295 18.91 55.4395 18.08C55.9495 17.25 56.6395 16.595 57.5095 16.115C58.3795 15.635 59.3645 15.395 60.4645 15.395C61.6145 15.395 62.5945 15.64 63.4045 16.13C64.2145 16.61 64.8295 17.285 65.2495 18.155C65.6795 19.025 65.8945 20.035 65.8945 21.185L65.8795 32H62.7445ZM98.9045 32L98.9195 21.905C98.9195 20.735 98.6195 19.825 98.0195 19.175C97.4195 18.515 96.6295 18.185 95.6495 18.185C95.0495 18.185 94.4995 18.325 93.9995 18.605C93.5095 18.875 93.1095 19.285 92.7995 19.835C92.4995 20.375 92.3495 21.055 92.3495 21.875L90.8345 21.11C90.8145 19.97 91.0545 18.97 91.5545 18.11C92.0645 17.25 92.7545 16.585 93.6245 16.115C94.4945 15.635 95.4695 15.395 96.5495 15.395C98.2995 15.395 99.6545 15.92 100.615 16.97C101.575 18.02 102.055 19.415 102.055 21.155L102.04 32H98.9045ZM79.4795 32V15.8H82.2695V20.48H82.6295V32H79.4795ZM89.1995 32L89.2145 21.965C89.2145 20.785 88.9145 19.86 88.3145 19.19C87.7245 18.52 86.9295 18.185 85.9295 18.185C84.9395 18.185 84.1395 18.525 83.5295 19.205C82.9295 19.885 82.6295 20.775 82.6295 21.875L81.1295 20.915C81.1295 19.855 81.3845 18.91 81.8945 18.08C82.4045 17.25 83.0945 16.595 83.9645 16.115C84.8345 15.635 85.8195 15.395 86.9195 15.395C88.0695 15.395 89.0495 15.64 89.8595 16.13C90.6695 16.61 91.2845 17.285 91.7045 18.155C92.1345 19.025 92.3495 20.035 92.3495 21.185L92.3345 32H89.1995ZM106.25 13.145V10.1H109.385V13.145H106.25ZM106.25 32V15.8H109.385V32H106.25ZM120.819 32.45C119.159 32.45 117.749 32.08 116.589 31.34C115.429 30.6 114.539 29.585 113.919 28.295C113.309 27.005 112.999 25.54 112.989 23.9C112.999 22.23 113.319 20.755 113.949 19.475C114.579 18.185 115.479 17.175 116.649 16.445C117.819 15.715 119.224 15.35 120.864 15.35C122.634 15.35 124.144 15.79 125.394 16.67C126.654 17.55 127.484 18.755 127.884 20.285L124.764 21.185C124.454 20.275 123.944 19.57 123.234 19.07C122.534 18.56 121.729 18.305 120.819 18.305C119.789 18.305 118.944 18.55 118.284 19.04C117.624 19.52 117.134 20.18 116.814 21.02C116.494 21.86 116.329 22.82 116.319 23.9C116.329 25.57 116.709 26.92 117.459 27.95C118.219 28.98 119.339 29.495 120.819 29.495C121.829 29.495 122.644 29.265 123.264 28.805C123.894 28.335 124.374 27.665 124.704 26.795L127.884 27.545C127.354 29.125 126.479 30.34 125.259 31.19C124.039 32.03 122.559 32.45 120.819 32.45ZM142.31 32V24.035C142.31 23.405 142.255 22.76 142.145 22.1C142.045 21.43 141.845 20.81 141.545 20.24C141.255 19.67 140.84 19.21 140.3 18.86C139.77 18.51 139.075 18.335 138.215 18.335C137.655 18.335 137.125 18.43 136.625 18.62C136.125 18.8 135.685 19.095 135.305 19.505C134.935 19.915 134.64 20.455 134.42 21.125C134.21 21.795 134.105 22.61 134.105 23.57L132.155 22.835C132.155 21.365 132.43 20.07 132.98 18.95C133.53 17.82 134.32 16.94 135.35 16.31C136.38 15.68 137.625 15.365 139.085 15.365C140.205 15.365 141.145 15.545 141.905 15.905C142.665 16.265 143.28 16.74 143.75 17.33C144.23 17.91 144.595 18.545 144.845 19.235C145.095 19.925 145.265 20.6 145.355 21.26C145.445 21.92 145.49 22.5 145.49 23V32H142.31ZM130.925 32V10.4H133.73V22.055H134.105V32H130.925ZM153.972 32.45C152.772 32.45 151.767 32.23 150.957 31.79C150.147 31.34 149.532 30.75 149.112 30.02C148.702 29.28 148.497 28.47 148.497 27.59C148.497 26.77 148.642 26.05 148.932 25.43C149.222 24.81 149.652 24.285 150.222 23.855C150.792 23.415 151.492 23.06 152.322 22.79C153.042 22.58 153.857 22.395 154.767 22.235C155.677 22.075 156.632 21.925 157.632 21.785C158.642 21.645 159.642 21.505 160.632 21.365L159.492 21.995C159.512 20.725 159.242 19.785 158.682 19.175C158.132 18.555 157.182 18.245 155.832 18.245C154.982 18.245 154.202 18.445 153.492 18.845C152.782 19.235 152.287 19.885 152.007 20.795L149.082 19.895C149.482 18.505 150.242 17.4 151.362 16.58C152.492 15.76 153.992 15.35 155.862 15.35C157.312 15.35 158.572 15.6 159.642 16.1C160.722 16.59 161.512 17.37 162.012 18.44C162.272 18.97 162.432 19.53 162.492 20.12C162.552 20.71 162.582 21.345 162.582 22.025V32H159.807V28.295L160.347 28.775C159.677 30.015 158.822 30.94 157.782 31.55C156.752 32.15 155.482 32.45 153.972 32.45ZM154.527 29.885C155.417 29.885 156.182 29.73 156.822 29.42C157.462 29.1 157.977 28.695 158.367 28.205C158.757 27.715 159.012 27.205 159.132 26.675C159.302 26.195 159.397 25.655 159.417 25.055C159.447 24.455 159.462 23.975 159.462 23.615L160.482 23.99C159.492 24.14 158.592 24.275 157.782 24.395C156.972 24.515 156.237 24.635 155.577 24.755C154.927 24.865 154.347 25 153.837 25.16C153.407 25.31 153.022 25.49 152.682 25.7C152.352 25.91 152.087 26.165 151.887 26.465C151.697 26.765 151.602 27.13 151.602 27.56C151.602 27.98 151.707 28.37 151.917 28.73C152.127 29.08 152.447 29.36 152.877 29.57C153.307 29.78 153.857 29.885 154.527 29.885ZM177.847 32V24.035C177.847 23.405 177.792 22.76 177.682 22.1C177.582 21.43 177.382 20.81 177.082 20.24C176.792 19.67 176.377 19.21 175.837 18.86C175.307 18.51 174.612 18.335 173.752 18.335C173.192 18.335 172.662 18.43 172.162 18.62C171.662 18.8 171.222 19.095 170.842 19.505C170.472 19.915 170.177 20.455 169.957 21.125C169.747 21.795 169.642 22.61 169.642 23.57L167.692 22.835C167.692 21.365 167.967 20.07 168.517 18.95C169.067 17.82 169.857 16.94 170.887 16.31C171.917 15.68 173.162 15.365 174.622 15.365C175.742 15.365 176.682 15.545 177.442 15.905C178.202 16.265 178.817 16.74 179.287 17.33C179.767 17.91 180.132 18.545 180.382 19.235C180.632 19.925 180.802 20.6 180.892 21.26C180.982 21.92 181.027 22.5 181.027 23V32H177.847ZM166.462 32V15.8H169.267V20.48H169.642V32H166.462ZM191.609 39.65C190.739 39.65 189.894 39.515 189.074 39.245C188.264 38.975 187.524 38.575 186.854 38.045C186.184 37.525 185.629 36.88 185.189 36.11L188.084 34.64C188.434 35.33 188.934 35.835 189.584 36.155C190.234 36.475 190.919 36.635 191.639 36.635C192.529 36.635 193.289 36.475 193.919 36.155C194.549 35.845 195.024 35.375 195.344 34.745C195.674 34.115 195.834 33.335 195.824 32.405V27.875H196.199V15.8H198.974V32.435C198.974 32.865 198.959 33.275 198.929 33.665C198.899 34.055 198.844 34.445 198.764 34.835C198.534 35.925 198.094 36.825 197.444 37.535C196.804 38.245 195.984 38.775 194.984 39.125C193.994 39.475 192.869 39.65 191.609 39.65ZM191.369 32.45C189.859 32.45 188.554 32.075 187.454 31.325C186.364 30.575 185.519 29.555 184.919 28.265C184.329 26.965 184.034 25.505 184.034 23.885C184.034 22.255 184.334 20.8 184.934 19.52C185.534 18.23 186.384 17.215 187.484 16.475C188.594 15.725 189.909 15.35 191.429 15.35C192.959 15.35 194.244 15.725 195.284 16.475C196.334 17.215 197.124 18.23 197.654 19.52C198.194 20.81 198.464 22.265 198.464 23.885C198.464 25.505 198.194 26.96 197.654 28.25C197.114 29.54 196.319 30.565 195.269 31.325C194.219 32.075 192.919 32.45 191.369 32.45ZM191.804 29.615C192.834 29.615 193.674 29.37 194.324 28.88C194.974 28.39 195.449 27.715 195.749 26.855C196.049 25.995 196.199 25.005 196.199 23.885C196.199 22.765 196.044 21.775 195.734 20.915C195.434 20.055 194.964 19.385 194.324 18.905C193.694 18.425 192.889 18.185 191.909 18.185C190.869 18.185 190.014 18.44 189.344 18.95C188.674 19.46 188.174 20.145 187.844 21.005C187.524 21.865 187.364 22.825 187.364 23.885C187.364 24.955 187.524 25.925 187.844 26.795C188.174 27.655 188.664 28.34 189.314 28.85C189.974 29.36 190.804 29.615 191.804 29.615ZM210.371 32.45C208.761 32.45 207.346 32.1 206.126 31.4C204.916 30.69 203.971 29.705 203.291 28.445C202.621 27.175 202.286 25.705 202.286 24.035C202.286 22.265 202.616 20.73 203.276 19.43C203.946 18.13 204.876 17.125 206.066 16.415C207.256 15.705 208.641 15.35 210.221 15.35C211.871 15.35 213.276 15.735 214.436 16.505C215.596 17.265 216.461 18.35 217.031 19.76C217.611 21.17 217.841 22.845 217.721 24.785H214.586V23.645C214.566 21.765 214.206 20.375 213.506 19.475C212.816 18.575 211.761 18.125 210.341 18.125C208.771 18.125 207.591 18.62 206.801 19.61C206.011 20.6 205.616 22.03 205.616 23.9C205.616 25.68 206.011 27.06 206.801 28.04C207.591 29.01 208.731 29.495 210.221 29.495C211.201 29.495 212.046 29.275 212.756 28.835C213.476 28.385 214.036 27.745 214.436 26.915L217.511 27.89C216.881 29.34 215.926 30.465 214.646 31.265C213.366 32.055 211.941 32.45 210.371 32.45ZM204.596 24.785V22.34H216.161V24.785H204.596Z" fill="#0037FF"/>
<mask id="mask0_11_2" style="mask-type:alpha" maskUnits="userSpaceOnUse" x="0" y="2" width="37" height="37">
<path d="M18.5 2C8.28273 2 0 10.2827 0 20.5C0 30.7173 8.28273 39 18.5 39C28.7173 39 37 30.7173 37 20.5C37 10.2827 28.7173 2 18.5 2ZM13.9137 7.01393C14.5873 7.37666 15.3836 7.7198 16.3035 8.04364C17.2233 8.36748 18.1367 8.52982 19.0436 8.52982C19.7129 8.52853 20.3805 8.36243 20.9484 7.94642C21.4983 7.61688 22.0305 7.35393 22.7361 7.42161C23.4611 7.50082 24.2245 7.75045 24.99 7.79179C25.9487 8.30998 26.8818 8.9568 27.7887 9.73411C27.3482 9.76001 26.8811 9.80638 26.3888 9.87119C25.8965 9.93601 25.4178 10.0322 24.9514 10.1617C24.485 10.2912 24.0573 10.4605 23.6686 10.6678C23.28 10.8751 22.9948 11.1335 22.8134 11.4445C22.5284 11.9109 22.3279 12.3061 22.2113 12.63C21.9713 13.3015 22.0281 14.373 21.4733 14.8652C21.3567 14.9429 21.2593 15.0333 21.1815 15.1369C21.1038 15.2406 21.0714 15.3762 21.0843 15.5446C21.0973 15.713 21.1819 15.953 21.3374 16.2639C21.4151 16.4453 21.4789 16.6655 21.5307 16.9246C22.0229 16.9231 22.5334 16.849 22.9693 16.5357L25.5348 16.7689C26.1971 16.0229 26.9688 16.0105 27.6329 16.7689C27.8402 16.9761 28.0604 17.2879 28.2936 17.7025L27.2053 18.4405C26.9462 18.3628 26.6356 18.2075 26.2728 17.9743C26.0919 17.8707 25.9099 17.7536 25.7281 17.6241C24.6941 17.1222 22.6695 17.7066 21.5307 17.7799C21.3822 18.0768 21.2625 18.3676 20.9098 18.4406C20.8485 18.6328 20.9077 18.8389 20.8313 19.024C20.339 19.8013 20.1709 20.6174 20.3264 21.4724C20.6114 22.8197 21.3103 23.4932 22.4245 23.4932H22.8521C23.3962 23.4932 23.7787 23.5187 23.9989 23.5705C24.2192 23.6223 24.3293 23.6617 24.3293 23.6876C24.1998 23.9986 24.1546 24.2443 24.1934 24.4257C24.3217 25.0076 24.7416 25.448 24.6983 26.0775C24.6581 26.8781 24.4064 27.5684 24.6796 28.3712C24.9912 29.15 25.3825 29.9957 25.6707 30.7997C25.7873 31.0329 25.9623 31.1755 26.1955 31.2273C26.6619 31.305 27.2449 30.9944 27.9445 30.2948C28.4627 29.7248 28.7607 29.1023 28.8384 28.4287C28.9409 27.8324 29.3613 27.3026 29.4991 26.6796V26.1747C29.6284 25.9156 29.7385 25.6629 29.8294 25.4168C29.9591 25.059 29.9733 24.6031 30.004 24.1926C30.4113 23.7852 30.8088 23.4216 31.0923 22.9098C31.2737 22.5989 31.3258 22.3276 31.2481 22.0945C31.2232 22.0427 31.1583 21.9905 31.0536 21.9387L30.4702 21.7055C30.4802 21.3797 31.0792 21.4282 31.364 21.4724L32.7628 20.6172C32.711 22.3791 32.3678 24.083 31.7331 25.7284C31.0983 27.3737 30.1593 28.8562 28.9157 30.1777C27.2574 31.9914 25.2683 33.2873 22.9493 34.0646C20.6303 34.8419 18.2402 34.9972 15.7787 34.5309C16.2025 33.7822 16.4471 32.9387 16.9455 32.1984C16.9455 31.8098 17.0034 31.4794 17.12 31.2073C17.6147 30.063 18.4218 29.7652 19.3552 28.8761C20.2971 27.8944 20.2882 26.7344 20.3263 25.3195C20.3135 24.4239 18.8816 23.8742 18.2271 23.376C16.71 22.3537 15.7466 20.8496 13.5833 21.2967C12.8102 21.3755 12.623 21.5257 12.0475 21.0448L11.8144 20.9276L11.8343 20.8503L11.9315 20.6558C12.1637 20.413 11.8341 20.1076 11.5227 20.2083C11.4579 20.2213 11.3872 20.2282 11.3095 20.2282C11.2384 19.8811 11.0055 19.5582 10.9592 19.1786C11.3219 19.4636 11.6337 19.678 11.8928 19.8206C12.1519 19.9631 12.3721 20.0604 12.5536 20.1123C12.735 20.19 12.8903 20.2155 13.0198 20.1896C13.3048 20.1378 13.466 19.8526 13.5048 19.3344C13.5437 18.8162 13.5251 18.2204 13.4474 17.5467C13.5251 17.4432 13.5761 17.3388 13.602 17.2351C13.8759 15.819 14.6011 16.1296 15.7014 15.7204C15.8827 15.6168 15.921 15.4869 15.8173 15.3315C15.8173 15.3055 15.8115 15.2928 15.7986 15.2928C15.7857 15.2928 15.7787 15.2789 15.7787 15.253C16.3768 14.9526 16.7291 14.3376 17.1001 13.7769C16.784 13.276 16.2932 12.8577 15.74 12.5715C15.4433 12.2055 14.2786 12.4299 14.0297 11.8334C13.8224 11.8075 13.6671 11.7681 13.5634 11.7163C12.5141 11.0362 12.0708 9.84708 10.9405 9.3651C10.487 9.32625 10.0396 9.33322 9.59913 9.38502C10.9205 8.32271 12.359 7.53218 13.9137 7.01393ZM4.4692 17.9743C4.70239 18.3629 4.98754 18.713 5.32436 19.0239C7.07258 20.6299 8.71584 20.9702 10.9592 21.7828C11.0627 21.8605 11.2053 21.9903 11.3868 22.1717C11.6312 22.3572 11.838 22.5794 12.0873 22.7551C12.0873 22.8846 12.0676 23.0655 12.0288 23.2987C11.9899 23.5318 11.9829 23.9074 12.0088 24.4256C12.0837 25.8676 13.2729 27.0091 13.6021 28.3899C13.3101 30.1794 13.3059 31.9383 13.0972 33.7143C11.3353 32.9888 9.78783 31.9525 8.45342 30.6052C7.11905 29.2579 6.08857 27.6907 5.36306 25.9029C4.84487 24.6073 4.51449 23.2917 4.37198 21.9573C4.22929 20.6229 4.26178 19.2957 4.4692 17.9743Z" fill="#0037FF"/>
</mask>
<g mask="url(#mask0_11_2)">
<circle cx="18.5" cy="20.5" r="16.5" fill="#0037FF"/>
</g>
</svg>
