<svg width="92" height="105" viewBox="0 0 92 105" fill="none" xmlns="http://www.w3.org/2000/svg">
<g filter="url(#filter0_d_5_2550)">
<g clip-path="url(#clip0_5_2550)">
<rect y="8.18123" width="74.2968" height="89.1561" rx="5" transform="rotate(-6.32197 0 8.18123)" fill="#0037FF"/>
<path d="M27.5133 71.1086C26.998 71.0974 26.4824 71.1221 25.9704 71.1823L25.6127 71.2257L25.6311 71.2237L24.3536 71.3652L24.7582 75.0168L26.1834 74.8589C26.8934 74.8326 27.5929 74.6791 28.2487 74.4059L28.2056 74.4219C28.5094 74.2591 28.7618 74.015 28.9348 73.7169L28.9381 73.7128C29.113 73.3616 29.1721 72.964 29.1071 72.577C29.0421 72.1901 28.8562 71.8337 28.5761 71.5589L28.5802 71.5622C28.2945 71.2849 27.9155 71.1243 27.5174 71.1119L27.5101 71.1127L27.5133 71.1086ZM36.4029 75.7114L39.9032 75.3236L37.6237 70.7397L36.4029 75.7114Z" fill="#EAF11D"/>
<path d="M67.6678 0.68436L6.55743 7.45473C2.93534 7.85602 0.325204 11.1166 0.726493 14.7387L9.09139 90.2414C9.49268 93.8635 12.7532 96.4737 16.3753 96.0724L77.4894 89.3016C81.1115 88.9003 83.7216 85.6398 83.3203 82.0177L74.9554 6.51489C74.5542 2.89279 71.2899 0.283071 67.6678 0.68436ZM39.5379 13.967C39.807 13.9671 40.1061 13.934 40.3752 13.9341C41.2785 13.9237 42.1116 14.1902 42.8031 14.663L42.7953 14.6601C44.3071 15.7223 45.608 17.0396 46.6405 18.566L46.6901 18.6427C47.2162 19.3768 47.7594 20.2659 48.2399 21.1957L48.3088 21.345C46.0503 21.9092 43.3528 22.4248 40.6058 22.7965L40.5172 22.8063L39.5379 13.967ZM51.9076 44.0109C48.9261 43.9127 45.9413 44.0037 42.9713 44.2833L42.8975 44.2915L42.1055 37.1433L52.1485 36.0306C52.3498 38.8937 52.2464 41.6373 51.8689 44.3029L51.8981 44.0269L51.9076 44.0109ZM43.2485 47.4594C46.034 47.1969 48.8327 47.1003 51.6297 47.17L51.2633 47.1695C50.9797 48.3319 50.6113 49.472 50.1612 50.5806L50.2129 50.4404C49.5473 52.1831 48.5595 53.7849 47.3012 55.1621L47.2844 55.1789C46.7019 55.8081 45.9362 56.2381 45.0958 56.4081L45.0773 56.4101C44.8081 56.4754 44.5354 56.5256 44.2605 56.5604L44.2531 56.5612L43.2485 47.4594ZM52.6075 51.4085C53.1018 50.2362 53.5482 48.8673 53.8859 47.462L53.9241 47.2671C55.3164 47.3521 56.7415 47.4969 58.1576 47.6951L58.1871 47.6918C57.9314 48.0827 57.6388 48.444 57.3765 48.7758C55.7493 50.8254 53.7562 52.5555 51.4983 53.8785L51.3715 53.9486C51.8271 53.203 52.2364 52.3765 52.571 51.5172L52.6022 51.4277L52.6075 51.4085ZM62.0687 34.9241C62.1505 38.3624 61.4079 41.7704 59.9032 44.863L59.9451 44.7687L59.5771 44.7197C57.9004 44.4702 56.2159 44.2754 54.5265 44.1356C54.8912 41.6247 54.9979 38.7424 54.797 35.8157L54.7917 35.7341L62.0687 34.9241ZM40.8657 25.9521C43.954 25.5432 47.0164 24.9581 50.0379 24.1996L49.6333 24.293C50.5606 26.6234 51.3084 29.3587 51.7407 32.2149L51.7525 32.2883L41.7096 33.401L40.8657 25.9521ZM52.168 23.5898C53.7968 23.1104 55.3448 22.5763 56.8829 21.9537L57.2276 21.8258C59.3501 24.3863 60.9138 27.5694 61.6162 31.1096L61.6285 31.1867L54.3289 31.9954C53.9009 29.0335 53.1428 26.1288 52.0688 23.3355L52.1623 23.6054L52.168 23.5898ZM54.817 19.3308C53.5168 19.8075 52.1871 20.2538 50.8767 20.6382C50.2608 19.3741 49.5502 18.1584 48.7508 17.0016L48.841 17.1411C48.2816 16.3358 47.6697 15.5683 47.0092 14.8436L47.065 14.9085C49.6026 15.7165 51.9717 16.9802 54.0562 18.6377C54.2925 18.8806 54.5591 19.094 54.8248 19.3337L54.817 19.3308ZM33.9261 15.639C34.4904 15.0308 35.2487 14.588 36.1143 14.4061L36.1328 14.4041C36.3728 14.3439 36.6583 14.2898 36.9496 14.2538L36.957 14.253L37.933 23.0627C35.1779 23.3181 32.4102 23.4114 29.6441 23.3419L30.0031 23.3432C30.3165 22.1573 30.6519 21.1708 31.0428 20.2118L30.991 20.3521C31.6907 18.5703 32.6439 17.0082 33.8506 15.6661L33.8642 15.6534L33.9261 15.639ZM28.9581 46.972C27.303 47.4843 25.6812 48.0265 24.1578 48.6475L23.8095 48.7758C21.6881 46.141 20.2412 43.0286 19.5943 39.7083L19.5824 39.6349L26.882 38.8261C27.2933 41.7968 28.0223 44.5977 29.0404 47.2432L28.9523 46.9876L28.9581 46.972ZM26.1605 51.2737C27.4859 50.7665 28.8329 50.318 30.1977 49.9294C30.9229 51.4151 31.6577 52.6493 32.4753 53.822L32.3851 53.6825C33.0055 54.5594 33.5911 55.2906 34.2169 55.98L34.1611 55.9152C31.6235 55.1072 29.2543 53.8435 27.1698 52.186C26.8381 51.8901 26.5067 51.5979 26.1716 51.2725L26.1605 51.2737ZM32.7799 49.2172C35.1049 48.6121 37.8356 48.0927 40.627 47.7499L40.6639 47.7458L41.6726 56.8508C41.0034 56.8855 40.3329 56.8899 39.6633 56.8642C39.227 56.6545 38.8049 56.4166 38.3996 56.152L38.4156 56.1614C36.9082 55.1027 35.6054 53.7793 34.5705 52.2556L34.5208 52.1789C33.8993 51.294 33.3429 50.365 32.8562 49.3994L32.7779 49.2324L32.7799 49.2172ZM40.3154 44.5663C37.1138 44.9846 34.0516 45.5817 31.073 46.3602L31.4665 46.268C30.5139 43.7958 29.8369 41.2261 29.4477 38.6054L29.4362 38.5357L39.5234 37.4181L40.3154 44.5663ZM29.3695 26.5305C32.332 26.6417 35.2987 26.544 38.2475 26.2384L38.2844 26.2343L39.1095 33.6816L29.0222 34.7991C28.8328 31.8413 28.9683 29.0156 29.3934 26.2737L29.3609 26.5539L29.3695 26.5305ZM29.8214 16.8114C29.4023 17.5493 28.9869 18.3877 28.6231 19.254L28.5738 19.3828C28.0785 20.5747 27.6811 21.8049 27.3854 23.0614L27.353 23.2406C25.9721 23.1457 24.5944 23.0079 23.222 22.8274L23.1925 22.8307C23.3948 22.5423 23.6039 22.2586 23.8196 21.9801C25.4582 19.9543 27.4449 18.2369 29.6864 16.9086L29.8168 16.8381L29.8214 16.8114ZM21.784 25.8385C23.4032 26.0815 25.0449 26.2584 26.7428 26.4029C26.3234 29.2521 26.2208 32.139 26.4369 35.0108L26.4414 35.0851L19.1418 35.8938C19.0501 32.3582 19.8456 28.8559 21.4555 25.7067L21.4161 25.7896L21.784 25.8385ZM30.6785 75.7588C30.3024 76.0821 29.875 76.3404 29.4139 76.5231L29.3852 76.5337C28.6221 76.7425 27.8435 76.89 27.0569 76.9748L26.6873 77.012L26.7058 77.01L25.0147 77.1973L25.5539 82.0637L22.9434 82.3529L21.5138 69.4485L25.6971 68.985C26.7526 68.8179 27.824 68.7745 28.8896 68.8556L28.803 68.8502C29.5688 68.976 30.2727 69.3481 30.8079 69.9101L30.8161 69.9167C31.3603 70.5777 31.7337 71.4184 31.8376 72.3563C31.9178 73.0799 31.831 73.781 31.6032 74.4229L31.611 74.3922C31.4328 74.9261 31.1136 75.4018 30.6871 75.769L30.6768 75.7777L30.6785 75.7588ZM42.4603 80.1869L41.0052 77.3768L35.8361 77.9494L35.0905 81.0034L32.3324 81.309L35.9242 67.8482L38.6823 67.5427L45.2737 79.8752L42.4603 80.1869ZM55.7127 77.0069C55.373 77.7019 54.8248 78.2735 54.1447 78.642L54.1196 78.6522C53.3926 79.0393 52.5334 79.3139 51.6104 79.4161L51.3404 79.4423L51.3515 79.4411C50.0041 79.677 48.6167 79.4223 47.441 78.7231L47.457 78.7326C46.4422 77.9803 45.7514 76.8704 45.5245 75.6277L45.5229 75.613L48.0185 75.0973C48.1889 75.8259 48.5928 76.4352 49.1445 76.86C49.7478 77.1779 50.4311 77.3123 51.1099 77.2464C51.7887 77.1804 52.4334 76.9172 52.9643 76.4891L52.9503 76.4981C53.1294 76.3313 53.2687 76.1263 53.3579 75.8984C53.4472 75.6706 53.4841 75.4255 53.466 75.1814L53.4623 75.1482C53.4365 74.8756 53.3113 74.6221 53.1106 74.4359C52.8157 74.216 52.4779 74.0648 52.1188 73.9852L52.0999 73.9835C51.7914 73.8981 51.0592 73.7998 49.9696 73.6477C48.8778 73.5666 47.8188 73.2378 46.8731 72.6864L46.8932 72.6991C46.4881 72.4279 46.1472 72.0714 45.8944 71.6545C45.6416 71.2377 45.4831 70.7706 45.4298 70.286L45.4196 70.1937C45.3443 69.5143 45.4852 68.8633 45.7898 68.3063L45.7836 68.3182C46.119 67.7018 46.6119 67.1912 47.2167 66.8476L47.238 66.8377C47.9117 66.4753 48.7097 66.2224 49.5663 66.1275L49.7476 66.1112L49.7403 66.112C51.0402 65.8622 52.3866 66.1032 53.5191 66.7885L53.5031 66.779C53.9417 67.0807 54.3103 67.4731 54.584 67.9296C54.8577 68.3861 55.0301 68.8962 55.0895 69.4251L55.0964 69.4879L52.4987 69.8916C52.3784 69.3544 52.0697 68.8782 51.6286 68.549C51.1644 68.3005 50.6357 68.1988 50.1125 68.2572L49.9102 68.2871L49.9176 68.2863C49.2815 68.3133 48.6727 68.5518 48.1874 68.9639L48.1977 68.9553C48.0801 69.0607 47.989 69.1924 47.932 69.3397C47.8749 69.4869 47.8534 69.6456 47.8692 69.8027L47.8705 69.8138C47.9048 70.1239 48.0869 70.3841 48.3387 70.5319L48.3424 70.5314C49.082 70.8644 49.9241 71.0776 50.7999 71.1226L50.841 71.1217C51.9412 71.2353 52.9179 71.4486 53.8527 71.7561L53.76 71.729C54.3818 71.9778 54.9109 72.3677 55.3173 72.8646L55.3263 72.8786C55.7251 73.412 55.9732 74.0429 56.0445 74.7052L56.0596 74.8754L56.0588 74.868L56.0698 74.9677C56.1525 75.7136 56.0078 76.4322 55.6876 77.0508L55.6934 77.0352L55.7127 77.0069ZM67.7273 75.6758C67.3876 76.3708 66.8394 76.9424 66.1592 77.3109L66.1342 77.3212C65.4071 77.7082 64.548 77.9828 63.625 78.085L63.355 78.1112L63.3661 78.11C62.0187 78.3459 60.6313 78.0912 59.4555 77.3921L59.4715 77.4015C58.4568 76.6492 57.766 75.5393 57.5391 74.2966L57.5375 74.2819L60.0331 73.7662C60.2035 74.4948 60.6074 75.1041 61.159 75.5289C61.7624 75.8469 62.4456 75.9812 63.1245 75.9153C63.8033 75.8494 64.4479 75.5861 64.9788 75.158L64.9649 75.1671C65.1439 75.0002 65.2832 74.7953 65.3725 74.5674C65.4617 74.3395 65.4987 74.0944 65.4806 73.8504L65.4769 73.8171C65.4511 73.5446 65.3259 73.291 65.1251 73.1049C64.8303 72.8849 64.4925 72.7337 64.1333 72.6541L64.1145 72.6525C63.806 72.567 63.0737 72.4687 61.9842 72.3166C60.8924 72.2355 59.8334 71.9068 58.8877 71.3553L58.9077 71.368C58.5027 71.0968 58.1618 70.7403 57.909 70.3234C57.6562 69.9066 57.4976 69.4395 57.4444 68.9549L57.4342 68.8626C57.3589 68.1833 57.4998 67.5323 57.8044 66.9753L57.7982 66.9871C58.1282 66.372 58.6249 65.8623 59.2312 65.5165L59.2526 65.5067C59.9263 65.1442 60.728 64.891 61.5809 64.7965L61.7622 64.7801L61.7548 64.7809C63.0548 64.5311 64.4012 64.7721 65.5337 65.4574L65.5177 65.4479C65.9563 65.7496 66.3249 66.142 66.5986 66.5985C66.8723 67.0551 67.0447 67.5651 67.1041 68.094L67.111 68.1568L64.5133 68.5605C64.393 68.0234 64.0843 67.5471 63.6432 67.2179C63.179 66.9694 62.6503 66.8677 62.127 66.9262L61.9248 66.9561L61.9322 66.9552C61.2961 66.9823 60.6873 67.2207 60.202 67.6328L60.2123 67.6242C60.0947 67.7296 60.0036 67.8613 59.9465 68.0086C59.8895 68.1558 59.868 68.3145 59.8838 68.4716L59.885 68.4827C59.9194 68.7929 60.1014 69.053 60.3533 69.2008L60.357 69.2004C61.0928 69.5337 61.9346 69.7432 62.8108 69.7919L62.8522 69.7948C63.9525 69.9083 64.9292 70.1216 65.864 70.4291L65.7713 70.402C66.3931 70.6508 66.9222 71.0407 67.3286 71.5376L67.3376 71.5516C67.7364 72.0851 67.9845 72.7159 68.0558 73.3782L68.0709 73.5484L68.0701 73.541L68.1016 73.7581C68.1728 74.4386 68.0336 75.1245 67.7026 75.7234L67.7088 75.7115L67.7273 75.6758Z" fill="#EAF11D"/>
</g>
<rect x="1.10403" y="9.06503" width="72.2968" height="87.1561" rx="4" transform="rotate(-6.32197 1.10403 9.06503)" stroke="#0037FF" stroke-width="2"/>
</g>
<defs>
<filter id="filter0_d_5_2550" x="0" y="1.22726e-05" width="91.6624" height="104.795" filterUnits="userSpaceOnUse" color-interpolation-filters="sRGB">
<feFlood flood-opacity="0" result="BackgroundImageFix"/>
<feColorMatrix in="SourceAlpha" type="matrix" values="0 0 0 0 0 0 0 0 0 0 0 0 0 0 0 0 0 0 127 0" result="hardAlpha"/>
<feOffset dx="4" dy="4"/>
<feGaussianBlur stdDeviation="2"/>
<feComposite in2="hardAlpha" operator="out"/>
<feColorMatrix type="matrix" values="0 0 0 0 0.141839 0 0 0 0 0.191092 0 0 0 0 0.369159 0 0 0 0.25 0"/>
<feBlend mode="normal" in2="BackgroundImageFix" result="effect1_dropShadow_5_2550"/>
<feBlend mode="normal" in="SourceGraphic" in2="effect1_dropShadow_5_2550" result="shape"/>
</filter>
<clipPath id="clip0_5_2550">
<rect y="8.18123" width="74.2968" height="89.1561" rx="5" transform="rotate(-6.32197 0 8.18123)" fill="white"/>
</clipPath>
</defs>
</svg>
